<svg viewBox="0 0 400 300" xmlns="http://www.w3.org/2000/svg"><path d="m207 112.9s30.83 41.47 58.16 37.47 45.67-47 45.67-47l-11-7s-39.17 58.31-73.67-7z" fill="#68e1fd"/><path d="m207 112.9s30.83 41.47 58.16 37.47 45.67-47 45.67-47l-11-7s-39.17 58.31-73.67-7z" opacity=".08"/><path d="m231.13 94.31s8.63 5.15 10.9 13.9 1.79 30.92-16.09 42-37.14 16-34.14 29l-10.25-5 12.75-27.5 29.1-16.46z" fill="#68e1fd"/><ellipse cx="200.22" cy="236.57" fill="#e6e6e6" opacity=".45" rx="163.84" ry="20.72"/><path d="m217.45 226.52s3.55 3 7.14 1.32 6.42 1.15 3.84 3.79-12.8 3.27-12.8 3.27l-2.89-5.59z" fill="#68e1fd"/><path d="m101.53 203.54s-4.64-.16-6.42 3.38-5.75 3.07-5.37-.6 8-10.48 8-10.48l5.73 2.59z" fill="#68e1fd"/><path d="m242.78 73.83s1 6.81.06 11.41a3.44 3.44 0 0 1 -4.07 2.76c-2.31-.48-5.3-1.82-6.26-5.4l-2.38-5.88a6.15 6.15 0 0 1 2.36-6.72c3.71-3 9.91-.34 10.29 3.83z" fill="#f4a28c"/><path d="m234.86 76.52-17.84 13.73 8.27 9.29 9.42-13.38z" fill="#f4a28c"/><path d="m241.09 74.21a27.39 27.39 0 0 1 -6.35-.14 5.72 5.72 0 0 1 .34 6.28 4.66 4.66 0 0 1 -5.52 2.16l-.37-8.82a7 7 0 0 1 3.2-6.42 27.25 27.25 0 0 1 2.87-1.6c2.48-1.15 6.29.34 8.47-1.5a1.66 1.66 0 0 1 2.68.94c.54 2.66.29 6.9-3.25 8.57a6.45 6.45 0 0 1 -2.07.53z" fill="#24285b"/><path d="m235.81 80.1s-.2-2.64-2.17-2.32-1.71 4.12 1 4.33z" fill="#f4a28c"/><path d="m243.17 78.15 2.05 2.54a1.1 1.1 0 0 1 -.59 1.76l-2.6.63z" fill="#f4a28c"/><path d="m234.44 86.54a8.38 8.38 0 0 1 -1.25-4.32s-4.17 2.64-1.45 8.15z" fill="#ce8172" opacity=".31"/><path d="m227.92 95.8s-4.7-9.41-23.7-9.5-65.53 24.77-62.33 78.91l39.66 9s7.33-18.21 30.72-26c24.01-8.02 27.46-44.48 15.65-52.41z" fill="#fff"/><path d="m219.91 88s-44-25.82-78.18-21.82-52.54 43.5-52.54 43.5l9.86 7s34-39.43 55.5-25.46 58.71 42.63 65.36-3.22z" fill="#68e1fd"/><path d="m170.3 96.21s-38 19.5-36.5 67.25l24 8.25s3.25-48.75 48.5-53.5c0 0 16.74-9.2 18.3-24.34 0 0 2.27-5.62-14.77-11.14z" fill="#68e1fd"/><path d="m228.53 91.68-.93 5.69h3.22l.31-6.12z" fill="#fff"/><path d="m223.69 108s-8.77 32.09-33.53 35.1-53.64-3.25-53.64-3.25a66.56 66.56 0 0 1 7.55-17.66c5.65-9.3 32.09-.34 32.09-.34z" opacity=".08"/><path d="m224.76 91.62s-2.41 6.3 0 7.29c1.22.51 2.73-.26 3.92-1.14a3.28 3.28 0 0 0 1-4l-1-2.2z" fill="#ffd200"/><path d="m227.6 95.8s1.7 18.41-24.55 32.91-54.87 0-54.87 0l-8.63-13.65 18.25-3.85s42.09 17.79 66.42-16.59z" fill="#ffd200"/><path d="m137.1 164.59s-6.21 14.28 7.12 21.62c7.86 4.32 21.73 6.59 31.8 7.72a26 26 0 0 1 19.09 12l15.69 24.82 9.11-5.75-8.73-22.35a48.29 48.29 0 0 0 -26-26.87l-3.59-1.53z" fill="#24285b"/><path d="m167.24 185s.67 24.34-20.33 28-47.33-8.66-47.33-8.66l4.66-8.34s43.34 13.34 40.34-13.66z" fill="#24285b"/><path d="m219.91 87.14 3.49-1.8 5.13 6.34-3.93 5z" fill="#fff"/><path d="m89.19 109.71-1.78 3.99 9.33 7 2.31-3.99z" fill="#68e1fd" opacity=".26"/><path d="m100.07 138.15-2.95-.51 1.19-6.8a4.52 4.52 0 0 0 -3.66-5.21l-10.65-1.86a4.5 4.5 0 0 0 -5.21 3.65l-1.19 6.8-3-.51 1.19-6.8a7.51 7.51 0 0 1 8.68-6.1l10.67 1.87a7.5 7.5 0 0 1 6.1 8.68z" fill="#68e1fd"/><path d="m100.07 138.15-2.95-.51 1.19-6.8a4.52 4.52 0 0 0 -3.66-5.21l-10.65-1.86a4.5 4.5 0 0 0 -5.21 3.65l-1.19 6.8-3-.51 1.19-6.8a7.51 7.51 0 0 1 8.68-6.1l10.67 1.87a7.5 7.5 0 0 1 6.1 8.68z" fill="#fff" opacity=".3"/><path d="m88.39 114.43s-9.48 10.14-2.85 12.79 9.29 2.56 11.2-6.52z" fill="#f4a28c"/><path d="m56.4 132.48h55.75v38.43h-55.75z" fill="#68e1fd" transform="matrix(.9850793 .17210103 -.17210103 .9850793 27.38 -12.25)"/><path d="m108.19 136.37s10.37 37.9-53.5 22.74l-1.18 6.71 54.92 9.6 6.62-37.86z" opacity=".08"/><path d="m301.56 97.5 1.6-3.36 8.67 6.16-1 3.07z" fill="#68e1fd" opacity=".4"/><path d="m304.69 95.23s7.64-9.51 13.64-6.68 4.5 7.59-6.5 11.75z" fill="#f4a28c"/><ellipse cx="338.6" cy="68.65" fill="#ffd200" rx="20.11" ry="4.87" transform="matrix(.9528735 -.3033679 .3033679 .9528735 -4.87 105.97)"/><path d="m319.44 74.76s7 28.87 28.35 22.74 10-34.95 10-34.95z" fill="#ffd200"/><ellipse cx="338.6" cy="68.65" opacity=".08" rx="20.11" ry="4.87" transform="matrix(.9528735 -.3033679 .3033679 .9528735 -4.87 105.97)"/><path d="m346.52 92.58h5.08v19.81h-5.08z" fill="#ffd200" transform="matrix(.9528735 -.3033679 .3033679 .9528735 -14.64 110.74)"/><path d="m343.24 107.59h21.17v16.88h-21.17z" fill="#24285b" transform="matrix(.9528735 -.3033679 .3033679 .9528735 -18.53 112.82)"/><path d="m348.42 111.72h10.81v8.62h-10.81z" fill="#ffd200" transform="matrix(.95 -.3 .3 .95 -18.53 112.82)"/><path d="m348.42 111.72h10.81v8.62h-10.81z" fill="#fff" opacity=".3" transform="matrix(.95 -.3 .3 .95 -18.53 112.82)"/><path d="m338 97-11.6 3.69a10.69 10.69 0 0 1 -6.49-20.37l4.24-1.35 1 3.23-4.24 1.35a7.3 7.3 0 0 0 4.43 13.92l11.6-3.7z" fill="#ffd200"/><path d="m355.05 91.51 11.6-3.69a10.69 10.69 0 0 0 -6.49-20.38l-4.24 1.35 1.08 3.21 4.24-1.35a7.3 7.3 0 0 1 4.43 13.92l-11.67 3.72z" fill="#ffd200"/><path d="m349.51 78.78c.27 4 0 10.43-4.08 14.47 0 0 10.42 1 12.5-14.29a4.15 4.15 0 0 0 -5.38-4.49h-.15a4.16 4.16 0 0 0 -2.89 4.31z" fill="#fff" opacity=".3"/><g fill="#c9c9c9"><path d="m317.51 51.44h2v10.51h-2z" transform="matrix(.36650123 -.93041757 .93041757 .36650123 149.04 332.27)"/><path d="m325.25 43.41h2v10.51h-2z" transform="matrix(.89993862 -.43601661 .43601661 .89993862 11.43 147.12)"/><path d="m332.38 47.8h10.51v2h-10.51z" transform="matrix(.33 -.94 .94 .33 180.6 351.66)"/></g></svg>