<?xml version="1.0" encoding="UTF-8"?>
<svg xmlns="http://www.w3.org/2000/svg" xmlns:xlink="http://www.w3.org/1999/xlink" viewBox="0 0 30 30" width="30px" height="30px">
<g id="surface21590528">
<path style=" stroke:none;fill-rule:nonzero;fill:rgb(100%,100%,100%);fill-opacity:1;" d="M 26.625 3.59375 C 26.332031 3.605469 26.050781 3.6875 25.792969 3.789062 C 25.539062 3.890625 24.078125 4.515625 21.917969 5.4375 C 19.761719 6.359375 16.953125 7.5625 14.171875 8.753906 C 8.609375 11.136719 3.144531 13.480469 3.144531 13.480469 L 3.183594 13.46875 C 3.183594 13.46875 2.851562 13.578125 2.519531 13.808594 C 2.351562 13.925781 2.171875 14.078125 2.023438 14.296875 C 1.875 14.515625 1.769531 14.828125 1.808594 15.15625 C 1.953125 16.3125 3.148438 16.636719 3.148438 16.636719 L 3.152344 16.640625 L 8.496094 18.46875 C 8.632812 18.921875 10.113281 23.875 10.441406 24.925781 C 10.621094 25.503906 10.789062 25.839844 10.964844 26.066406 C 11.054688 26.179688 11.148438 26.269531 11.25 26.335938 C 11.289062 26.359375 11.332031 26.378906 11.375 26.398438 C 11.375 26.398438 11.375 26.394531 11.375 26.398438 C 11.382812 26.398438 11.386719 26.398438 11.390625 26.402344 L 11.378906 26.398438 C 11.386719 26.402344 11.398438 26.410156 11.40625 26.410156 C 11.425781 26.417969 11.4375 26.417969 11.460938 26.421875 C 12.074219 26.636719 12.582031 26.242188 12.582031 26.242188 L 12.601562 26.222656 L 15.882812 23.179688 L 21.207031 27.332031 L 21.273438 27.363281 C 22.207031 27.777344 23.050781 27.546875 23.515625 27.167969 C 23.984375 26.785156 24.167969 26.296875 24.167969 26.296875 L 24.1875 26.246094 L 28.097656 5.851562 C 28.199219 5.394531 28.214844 5 28.121094 4.644531 C 28.023438 4.289062 27.796875 3.976562 27.507812 3.804688 C 27.21875 3.632812 26.917969 3.578125 26.625 3.59375 Z M 26.65625 4.8125 C 26.777344 4.804688 26.863281 4.820312 26.890625 4.835938 C 26.917969 4.851562 26.933594 4.851562 26.960938 4.953125 C 26.984375 5.050781 27 5.261719 26.925781 5.59375 L 26.925781 5.601562 L 23.035156 25.878906 C 23.023438 25.898438 22.945312 26.085938 22.757812 26.234375 C 22.570312 26.390625 22.359375 26.507812 21.804688 26.277344 L 15.980469 21.734375 L 15.816406 21.605469 L 15.8125 21.609375 L 14.070312 20.300781 L 23.855469 8.789062 C 24.011719 8.609375 24.042969 8.355469 23.941406 8.140625 C 23.839844 7.925781 23.621094 7.792969 23.386719 7.800781 C 23.273438 7.804688 23.160156 7.835938 23.066406 7.902344 L 8.90625 17.339844 L 3.558594 15.507812 C 3.558594 15.507812 3.027344 15.214844 3 15.007812 C 3 14.996094 2.992188 15.007812 3.019531 14.964844 C 3.046875 14.925781 3.117188 14.855469 3.203125 14.792969 C 3.378906 14.671875 3.578125 14.601562 3.578125 14.601562 L 3.617188 14.585938 C 3.617188 14.585938 9.082031 12.238281 14.644531 9.855469 C 17.425781 8.664062 20.234375 7.464844 22.390625 6.542969 C 24.546875 5.617188 26.109375 4.953125 26.238281 4.902344 C 26.390625 4.839844 26.539062 4.816406 26.65625 4.8125 Z M 20.167969 11.277344 L 12.746094 20.007812 L 12.742188 20.011719 C 12.730469 20.023438 12.71875 20.039062 12.710938 20.054688 C 12.699219 20.070312 12.6875 20.085938 12.675781 20.105469 C 12.636719 20.175781 12.609375 20.253906 12.597656 20.335938 C 12.597656 20.335938 12.597656 20.339844 12.597656 20.339844 L 11.632812 24.6875 C 11.617188 24.640625 11.605469 24.625 11.585938 24.566406 C 11.28125 23.582031 9.878906 18.910156 9.6875 18.265625 Z M 13.585938 21.4375 L 14.917969 22.4375 L 12.957031 24.253906 Z M 13.585938 21.4375 "/>
</g>
</svg>
