<svg id="visual" viewBox="0 0 400 960" width="400" height="960" xmlns="http://www.w3.org/2000/svg" xmlns:xlink="http://www.w3.org/1999/xlink" version="1.1"><rect x="0" y="0" width="400" height="960" fill="#398b79"></rect><defs><linearGradient id="grad1_0" x1="0%" y1="0%" x2="100%" y2="100%"><stop offset="29.999999999999996%" stop-color="#398b79" stop-opacity="1"></stop><stop offset="70%" stop-color="#398b79" stop-opacity="1"></stop></linearGradient></defs><defs><linearGradient id="grad2_0" x1="0%" y1="0%" x2="100%" y2="100%"><stop offset="29.999999999999996%" stop-color="#398b79" stop-opacity="1"></stop><stop offset="70%" stop-color="#398b79" stop-opacity="1"></stop></linearGradient></defs><g transform="translate(400, 0)"><path d="M0 200C-22.4 190.1 -44.8 180.2 -71.6 172.8C-98.3 165.4 -129.5 160.5 -141.4 141.4C-153.3 122.3 -145.9 89.1 -152.4 63.1C-159 37.2 -179.5 18.6 -200 0L0 0Z" fill="#FBAE3C"></path></g><g transform="translate(0, 960)"><path d="M0 -200C23.4 -190.9 46.8 -181.8 71.9 -173.7C97.1 -165.5 123.9 -158.3 141.4 -141.4C159 -124.5 167.3 -97.9 175.5 -72.7C183.8 -47.5 191.9 -23.8 200 0L0 0Z" fill="#FBAE3C"></path></g></svg>